<svg xmlns="http://www.w3.org/2000/svg" width="297mm" height="210mm" viewBox="0 0 1052.362 744.094"><g transform="translate(0 -308.26772)"><ellipse cx="163.174" cy="714.162" fill="none" rx="31.324" ry="20.164"/><g fill="#666"><path fill-rule="evenodd" d="m586.45898 348.82227a76.722969 74.150711 0 0 0 -76.7246 74.15039 76.722969 74.150711 0 0 0 76.7246 74.15039 76.722969 74.150711 0 0 0 76.72266-74.15039 76.722969 74.150711 0 0 0 -76.72266-74.15039zm-.2539 42.99804a34.509712 31.254358 0 0 1 34.50976 31.25391 34.509712 31.254358 0 0 1 -34.50976 31.25586 34.509712 31.254358 0 0 1 -34.50977-31.25586 34.509712 31.254358 0 0 1 34.50977-31.25391z" transform="translate(0 308.26772)"/><path d="m413.23633 348.21484a76.452286 76.306404 0 0 0 -76.45117 76.30664 76.452286 76.306404 0 0 0 .15039 2.91797v69.10157h38.94336v-.09961h.22265v-41.86329h.02149a36.192722 62.004616 0 0 1 -.05078-2.17773 36.192722 62.004616 0 0 1 36.19335-62.00391 36.192722 62.004616 0 0 1 36.19141 62.00391 36.192722 62.004616 0 0 1 -.06445 2.17773h.06445v37.46094a76.452286 76.306404 0 0 0 .0293-.01367v4.82617h40.90625v-66.66406a76.452286 76.306404 0 0 0 .29687-5.66602 76.452286 76.306404 0 0 0 -76.45312-76.30664z" transform="translate(0 308.26772)"/><ellipse cx="735.297" cy="-257.162" rx="23.692" ry="54.941" transform="matrix(.00362224 .99999344 -.99990286 .0139382 0 0)"/><path fill-rule="evenodd" d="m929.2168 348.82227a76.722969 74.150711 0 0 0 -76.72461 74.15039 76.722969 74.150711 0 0 0 76.72461 74.15039 76.722969 74.150711 0 0 0 48.89258-17.04493 16.643726 56.001362 0 0 0 11.8125 16.58594 16.643726 56.001362 0 0 0 16.64452-56 16.643726 56.001362 0 0 0 -.6953-15.86328 76.722969 74.150711 0 0 0 .0684-1.82812 76.722969 74.150711 0 0 0 -76.7227-74.15039zm-.25391 42.99804a34.509712 31.254358 0 0 1 34.50977 31.25391 34.509712 31.254358 0 0 1 -34.50977 31.25586 34.509712 31.254358 0 0 1 -34.50977-31.25586 34.509712 31.254358 0 0 1 34.50977-31.25391z" transform="translate(0 308.26772)"/></g><path fill="#5783ad" fill-rule="evenodd" d="m105.35266 657.08999a76.722969 74.150711 0 0 0 -76.724599 74.15039 76.722969 74.150711 0 0 0 76.724599 74.15039 76.722969 74.150711 0 0 0 76.72266-74.15039 76.722969 74.150711 0 0 0 -76.72266-74.15039zm-.2539 42.99804a34.509712 31.254358 0 0 1 34.50976 31.25391 34.509712 31.254358 0 0 1 -34.50976 31.25586 34.509712 31.254358 0 0 1 -34.509769-31.25586 34.509712 31.254358 0 0 1 34.509769-31.25391z"/><ellipse cx="74.669" cy="665.421" fill="#5783ad" rx="20.565" ry="99.534" transform="matrix(.99910328 .0423396 -.0423396 .99910328 0 0)"/><g fill="#666"><path d="m678.11914 348.81836a81.638512 152.46867 0 0 0 81.55469 148.0625 81.638512 152.46867 0 0 0 81.52148-148.0625h-44.34375a41.754047 173.69398 0 0 1 -38.42383 105.75976 41.754047 173.69398 0 0 1 -38.3789-105.75976z" transform="translate(0 308.26772)"/><path d="m336.91776 730.97626h43.491875v74.17276h-43.491875z"/><path d="m444.07703 731.34918h33.614716v73.927597h-33.614716z"/></g><ellipse cx="440.996" cy="737.948" fill="none" rx="15.974" ry="16.084"/></g></svg>